<?xml version="1.0" encoding="UTF-8"?>
<svg id="Layer_1" xmlns="http://www.w3.org/2000/svg" xmlns:xlink="http://www.w3.org/1999/xlink" version="1.1" viewBox="0 0 217.772 56.7449">
  <!-- Generator: Adobe Illustrator 29.2.1, SVG Export Plug-In . SVG Version: 2.1.0 Build 116)  -->
  <defs>
    <style>
      .st0 {
        fill: none;
      }

      .st1 {
        fill: #ec663e;
      }

      .st2 {
        clip-path: url(#clippath);
      }
    </style>
    <clipPath id="clippath">
      <rect class="st0" y="0" width="217.772" height="56.745"/>
    </clipPath>
  </defs>
  <g class="st2">
    <path class="st1" d="M141.88,32.5403c0-4.952-3.368-8.518-8.419-8.518s-8.418,3.566-8.418,8.518,3.367,8.517,8.418,8.517,8.419-3.565,8.419-8.517M120.289,32.7383c0-7.676,5.447-13.073,13.222-13.073,7.675,0,13.024,5.249,13.024,13.073v12.033h-4.309v-5.348c-1.634,3.962-5.249,5.992-9.507,5.992-6.388,0-12.43-4.605-12.43-12.677"/>
    <path class="st1" d="M11.6632,13.3264c-3.516,0-5.843,1.931-5.843,6.239v4.111h5.843v4.308h-5.843v16.787H1.1152v-25.206c0-7.081,4.259-10.597,10.548-10.597v4.358Z"/>
    <path class="st1" d="M35.1313,32.5403c0-4.952-3.368-8.518-8.419-8.518s-8.418,3.566-8.418,8.518,3.367,8.517,8.418,8.517,8.419-3.565,8.419-8.517M13.5403,32.7383c0-7.676,5.447-13.073,13.222-13.073,7.675,0,13.024,5.249,13.024,13.073v12.033h-4.309v-5.348c-1.634,3.962-5.249,5.992-9.507,5.992-6.388,0-12.43-4.605-12.43-12.677"/>
    <path class="st1" d="M42.7567,37.6899h4.754c.099,2.031,1.981,3.467,5.397,3.467,3.566,0,5.398-1.536,5.398-3.467,0-2.327-2.575-2.624-5.645-3.02-4.259-.545-9.409-1.338-9.409-6.933,0-4.803,3.764-8.072,9.607-8.072s9.458,3.318,9.557,7.527h-4.655c-.148-1.881-1.881-3.268-4.853-3.268-3.119,0-4.902,1.485-4.902,3.417,0,2.327,2.575,2.575,5.596,2.971,4.258.545,9.458,1.337,9.458,6.932,0,4.952-4.011,8.171-10.152,8.171s-10.003-3.268-10.151-7.725"/>
    <path class="st1" d="M75.836,45.4153c-5.844,0-9.805-3.268-9.805-9.904V11.6423h4.704v8.667h5.101v4.307h-5.101v10.895c0,3.862,2.03,5.546,5.101,5.546v4.358Z"/>
    <path class="st1" d="M79.3438,34.4714v-14.163h4.705v14.163c0,4.555,2.426,6.586,5.843,6.586,3.318,0,5.843-2.129,5.843-6.586v-14.163h4.705v14.163c0,4.457,2.476,6.586,5.794,6.586,3.417,0,5.843-2.031,5.843-6.586v-14.163h4.705v14.163c0,7.478-4.358,10.944-10.103,10.944-3.813,0-6.932-1.684-8.616-4.853-1.684,3.169-4.853,4.853-8.617,4.853-5.744,0-10.102-3.466-10.102-10.944"/>
    <path class="st1" d="M164.2886,30.609c0-7.478,4.358-10.944,10.102-10.944,3.764,0,6.933,1.684,8.617,4.853,1.684-3.169,4.803-4.853,8.616-4.853,5.745,0,10.103,3.466,10.103,10.944v14.162h-4.705v-14.162c0-4.556-2.426-6.586-5.843-6.586-3.318,0-5.794,2.129-5.794,6.586v14.162h-4.705v-14.162c0-4.457-2.525-6.586-5.843-6.586-3.417,0-5.843,2.03-5.843,6.586v14.162h-4.705v-14.162Z"/>
    <path class="st1" d="M207.0373,23.3286c.228.121.469-.141.329-.359-.758-1.18-1.476-3.166-.332-5.723,1.908-4.265,3.069-6.474,3.069-6.474,0,0,.617,2.578,2.291,4.87,1.611,2.206,2.492,4.98,1.071,7.291-.134.217.102.473.328.357,1.76-.9,3.734-2.706,3.956-6.299.082-1.098-.041-2.635-.656-4.574-.792-2.459-1.765-3.606-2.328-4.098-.169-.148-.431-.017-.417.206.164,2.653-.834,3.326-1.402,1.809-.227-.606-.359-1.654-.359-2.93,0-2.125-.616-4.312-1.975-6.089-.354-.462-.767-.894-1.242-1.262-.172-.134-.421,0-.405.217.105,1.44.01,5.568-3.611,10.5-3.284,4.575-2.012,8.088-1.56,9.039.863,1.823,2.067,2.894,3.243,3.519"/>
    <path class="st1" d="M160.9443,19.6649c-6.289,0-10.548,3.466-10.548,10.696v14.411h4.705v-14.411c0-4.506,2.327-6.338,5.843-6.338v-4.358Z"/>
    <path class="st1" d="M201.7022,56.7449H.9622C.4312,56.7449.0002,56.3139.0002,55.7819c0-.531.431-.962.962-.962h200.74c.532,0,.963.431.963.962,0,.532-.431.963-.963.963"/>
  </g>
</svg>