<?xml version="1.0" encoding="utf-8"?>
<!-- Generator: Adobe Illustrator 26.2.1, SVG Export Plug-In . SVG Version: 6.00 Build 0)  -->
<svg version="1.1" id="Layer_1" xmlns="http://www.w3.org/2000/svg" xmlns:xlink="http://www.w3.org/1999/xlink" x="0px" y="0px"
	 viewBox="0 0 31.768 30.08" style="enable-background:new 0 0 31.768 30.08;" xml:space="preserve">
<style type="text/css">
	.st0{clip-path:url(#SVGID_00000127724014251299014710000002080354597587331232_);fill:none;stroke:#EC663E;stroke-miterlimit:10;}
	
		.st1{clip-path:url(#SVGID_00000127724014251299014710000002080354597587331232_);fill:none;stroke:#EC663E;stroke-linecap:round;stroke-linejoin:round;stroke-miterlimit:10;}
</style>
<g>
	<defs>
		<rect id="SVGID_1_" width="31.768" height="30.08"/>
	</defs>
	<clipPath id="SVGID_00000075855404566620897060000018179868989556383894_">
		<use xlink:href="#SVGID_1_"  style="overflow:visible;"/>
	</clipPath>
	
		<path style="clip-path:url(#SVGID_00000075855404566620897060000018179868989556383894_);fill:none;stroke:#EC663E;stroke-miterlimit:10;" d="
		M5.8335,18.6513c0,0.741-0.602,1.345-1.343,1.345c-0.742,0-1.343-0.604-1.343-1.345c0-0.742,0.601-1.343,1.343-1.343
		C5.2315,17.3083,5.8335,17.9093,5.8335,18.6513z"/>
	
		<path style="clip-path:url(#SVGID_00000075855404566620897060000018179868989556383894_);fill:none;stroke:#EC663E;stroke-linecap:round;stroke-linejoin:round;stroke-miterlimit:10;" d="
		M8.481,28.9856h-2.46H2.96c-1.358,0-2.46-1.102-2.46-2.457v-9.617c0-1.361,1.102-2.461,2.46-2.461h3.061h2.46V28.9856z
		 M24.801,29.5796h2.068c1.3,0,2.355-1.051,2.355-2.353c0-1.301-1.055-2.356-2.355-2.356 M23.779,24.8706h5.135
		c1.299,0,2.354-1.052,2.354-2.353c0-1.301-1.055-2.356-2.354-2.356h-2.218 M23.779,20.1616h5.135c1.299,0,2.354-1.052,2.354-2.353
		c0-1.303-1.055-2.358-2.354-2.358h-2.218 M23.779,15.4506h4.112c1.3,0,2.355-1.05,2.355-2.352s-1.055-2.357-2.355-2.357h-1.195
		 M26.59,10.7416h-7.142c0,0,0.528-0.816,0.528-4.087c0-3.268-2.117-6.155-3.847-6.155c-1.733,0-2.069,0.719-2.069,0.719
		s0.288,2.599,0.433,3.656c0.145,1.058-0.05,2.213-0.385,3.031c-0.337,0.816-3.03,4.615-3.847,5.962
		c-0.819,1.35-1.781,1.587-1.781,1.587 M8.48,27.4326c1.925,1.873,4.329,2.147,4.329,2.147h12.375"/>
</g>
<g>
</g>
<g>
</g>
<g>
</g>
<g>
</g>
<g>
</g>
<g>
</g>
</svg>
