<?xml version="1.0" encoding="utf-8"?>
<!-- Generator: Adobe Illustrator 26.2.1, SVG Export Plug-In . SVG Version: 6.00 Build 0)  -->
<svg version="1.1" id="Layer_1" xmlns="http://www.w3.org/2000/svg" xmlns:xlink="http://www.w3.org/1999/xlink" x="0px" y="0px"
	 viewBox="0 0 37.417 24.149" style="enable-background:new 0 0 37.417 24.149;" xml:space="preserve">
<style type="text/css">
	.st0{fill:none;stroke:#EC663E;stroke-linecap:round;stroke-linejoin:round;stroke-miterlimit:10;}
</style>
<path class="st0" d="M23.0726,16.1578V2.1398c0-0.906-0.734-1.64-1.638-1.64H2.1376c-0.904,0-1.638,0.734-1.638,1.64v18.143
	 M0.4996,20.2828h4.835 M23.0726,5.6498h5.076c0,0,1.598,0.011,2.157,1.619c0.444,1.277,1.612,4.579,1.612,4.579h3.401
	c0.87,0,1.599,0.544,1.599,1.35v7.085 M36.9176,20.2828h-4.153 M12.0656,20.2828h13.211 M12.0656,20.2828
	c0,1.859-1.507,3.366-3.365,3.366c-1.859,0-3.366-1.507-3.366-3.366c0-1.857,1.507-3.364,3.366-3.364
	C10.5586,16.9188,12.0656,18.4258,12.0656,20.2828z M32.3726,20.2828c0,1.859-1.507,3.366-3.366,3.366
	c-1.858,0-3.365-1.507-3.365-3.366c0-1.857,1.507-3.364,3.365-3.364C30.8656,16.9188,32.3726,18.4258,32.3726,20.2828z"/>
<g>
</g>
<g>
</g>
<g>
</g>
<g>
</g>
<g>
</g>
<g>
</g>
</svg>
