<?xml version="1.0" encoding="utf-8"?>
<!-- Generator: Adobe Illustrator 26.2.1, SVG Export Plug-In . SVG Version: 6.00 Build 0)  -->
<svg version="1.1" id="Layer_1" xmlns="http://www.w3.org/2000/svg" xmlns:xlink="http://www.w3.org/1999/xlink" x="0px" y="0px"
	 viewBox="0 0 26.0008 34.505" style="enable-background:new 0 0 26.0008 34.505;" xml:space="preserve">
<style type="text/css">
	.st0{fill:none;stroke:#EC663E;stroke-linejoin:round;stroke-miterlimit:10;}
	.st1{fill:none;stroke:#EC663E;stroke-linecap:round;stroke-linejoin:round;stroke-miterlimit:10;}
	.st2{fill:none;stroke:#EC663E;stroke-width:0.9242;stroke-linejoin:round;stroke-miterlimit:10;}
</style>
<polygon class="st0" points="15.5191,28.1091 13.0004,26.8333 10.4815,28.1091 8.5464,26.0499 7.853,26.1324 7.853,34.0048 
	13.0004,31.8734 18.1479,34.005 18.1479,26.1324 17.4542,26.0499 "/>
<polygon class="st1" points="25.5008,12.8125 24.045,14.761 24.7499,17.089 22.7134,18.4194 22.5763,20.848 20.2079,21.4027 
	19.2518,23.6396 16.8366,23.3525 15.1708,25.125 13.0004,24.0256 10.83,25.125 9.1641,23.3525 6.7488,23.6396 5.7928,21.4027 
	3.4244,20.8478 3.2873,18.4194 1.2509,17.089 1.9558,14.761 0.5,12.8125 1.9558,10.864 1.2509,8.536 3.2875,7.2056 3.4246,4.777 
	5.793,4.2221 6.749,1.9854 9.1643,2.2725 10.83,0.5 13.0004,1.5994 15.171,0.5 16.8366,2.2725 19.252,1.9854 20.2079,4.2223 
	22.5763,4.7772 22.7134,7.2056 24.7499,8.536 24.045,10.864 "/>
<circle class="st2" cx="13.0004" cy="12.8125" r="8.6352"/>
<path class="st1" d="M9.1603,14.0614c0,0,2.7666,1.9282,3.5211,3.3535c0,0,1.7606-5.9524,4.7787-8.8867"/>
<g>
</g>
<g>
</g>
<g>
</g>
<g>
</g>
<g>
</g>
<g>
</g>
</svg>
