<svg xmlns="http://www.w3.org/2000/svg" width="34" height="18" viewBox="0 0 34 18" version="1.1"><path d="M 18.508 6.991 L 14.611 10.983 12.491 8.991 C 11.325 7.896, 10.063 7, 9.686 7 C 8.167 7, 9.143 9.786, 11.406 11.911 C 14.276 14.608, 16.070 13.962, 20.863 8.503 C 26.482 2.104, 24.515 0.840, 18.508 6.991" stroke="none" fill="#ef8260" fill-rule="evenodd"/><path d="M 0 9.024 L 0 18.047 17.250 17.774 L 34.500 17.500 34.789 8.750 L 35.078 0 17.539 0 L 0 0 0 9.024 M 0.355 9.500 C 0.352 14.450, 0.521 16.601, 0.731 14.280 C 0.940 11.959, 0.943 7.909, 0.736 5.280 C 0.530 2.651, 0.358 4.550, 0.355 9.500 M 18.508 6.991 L 14.611 10.983 12.491 8.991 C 11.325 7.896, 10.063 7, 9.686 7 C 8.167 7, 9.143 9.786, 11.406 11.911 C 14.276 14.608, 16.070 13.962, 20.863 8.503 C 26.482 2.104, 24.515 0.840, 18.508 6.991" stroke="none" fill="#f5f5f5" fill-rule="evenodd"/></svg>